<?xml version="1.0" encoding="UTF-8" standalone="no"?>
<!-- Created with Inkscape (http://www.inkscape.org/) -->

<svg
   xmlns:dc="http://purl.org/dc/elements/1.1/"
   xmlns:cc="http://creativecommons.org/ns#"
   xmlns:rdf="http://www.w3.org/1999/02/22-rdf-syntax-ns#"
   xmlns:svg="http://www.w3.org/2000/svg"
   xmlns="http://www.w3.org/2000/svg"
   xmlns:xlink="http://www.w3.org/1999/xlink"
   xmlns:sodipodi="http://sodipodi.sourceforge.net/DTD/sodipodi-0.dtd"
   xmlns:inkscape="http://www.inkscape.org/namespaces/inkscape"
   width="1488.189"
   height="1052.3622"
   id="svg2190"
   sodipodi:version="0.32"
   inkscape:version="0.48.1 r9760"
   sodipodi:docname="mountainadventure.svgz"
   version="1.0"
   inkscape:export-filename="/home/nicu/Desktop/gnobots2/boo.png"
   inkscape:export-xdpi="45"
   inkscape:export-ydpi="45"
   inkscape:output_extension="org.inkscape.output.svgz.inkscape">
  <defs
     id="defs2192">
    <inkscape:perspective
       sodipodi:type="inkscape:persp3d"
       inkscape:vp_x="0 : 526.18109 : 1"
       inkscape:vp_y="0 : 1000 : 0"
       inkscape:vp_z="1488.189 : 526.18109 : 1"
       inkscape:persp3d-origin="744.09448 : 350.78739 : 1"
       id="perspective173" />
    <linearGradient
       id="linearGradient3386">
      <stop
         id="stop3388"
         offset="0"
         style="stop-color:#d7d699;stop-opacity:0.7525773;" />
      <stop
         id="stop3390"
         offset="1"
         style="stop-color:#9ea255;stop-opacity:0.75294119;" />
    </linearGradient>
    <linearGradient
       id="linearGradient3334">
      <stop
         style="stop-color:#d7d699;stop-opacity:0.50196081;"
         offset="0"
         id="stop3336" />
      <stop
         style="stop-color:#6e722b;stop-opacity:0.50196081;"
         offset="1"
         id="stop3338" />
    </linearGradient>
    <linearGradient
       id="linearGradient5935">
      <stop
         style="stop-color:#f1efde;stop-opacity:1;"
         offset="0"
         id="stop5937" />
      <stop
         style="stop-color:#ffffff;stop-opacity:1;"
         offset="1"
         id="stop5939" />
    </linearGradient>
    <radialGradient
       inkscape:collect="always"
       xlink:href="#linearGradient3334"
       id="radialGradient3340"
       cx="120.31198"
       cy="99.004623"
       fx="120.31198"
       fy="99.004623"
       r="20"
       gradientUnits="userSpaceOnUse"
       gradientTransform="matrix(2.2860993,3.5078717e-7,-2.8624999e-7,1.540655,-47.111701,-123.766)" />
    <filter
       inkscape:collect="always"
       id="filter4339">
      <feGaussianBlur
         inkscape:collect="always"
         stdDeviation="0.00388"
         id="feGaussianBlur4341" />
    </filter>
    <linearGradient
       id="linearGradient2202">
      <stop
         id="stop2204"
         offset="0"
         style="stop-color:#5d7d4b;stop-opacity:1;" />
      <stop
         id="stop2206"
         offset="1"
         style="stop-color:#3f6335;stop-opacity:1;" />
    </linearGradient>
    <linearGradient
       id="linearGradient3111">
      <stop
         id="stop3113"
         offset="0"
         style="stop-color:#37633c;stop-opacity:1;" />
      <stop
         style="stop-color:#659161;stop-opacity:1;"
         offset="0.5"
         id="stop3119" />
      <stop
         id="stop3115"
         offset="1"
         style="stop-color:#bcc98f;stop-opacity:1;" />
    </linearGradient>
    <linearGradient
       id="linearGradient4012">
      <stop
         style="stop-color:#173418;stop-opacity:1;"
         offset="0"
         id="stop4014" />
      <stop
         id="stop4020"
         offset="0.28999999"
         style="stop-color:#406f42;stop-opacity:1;" />
      <stop
         id="stop4016"
         offset="0.5"
         style="stop-color:#c2d193;stop-opacity:1;" />
      <stop
         style="stop-color:#c8d698;stop-opacity:1;"
         offset="1"
         id="stop4018" />
    </linearGradient>
    <linearGradient
       id="linearGradient4913">
      <stop
         id="stop4915"
         offset="0"
         style="stop-color:#0a2e17;stop-opacity:1;" />
      <stop
         style="stop-color:#284e2c;stop-opacity:1;"
         offset="0.1573"
         id="stop4917" />
      <stop
         id="stop7551"
         offset="0.42696398"
         style="stop-color:#637d52;stop-opacity:1;" />
      <stop
         id="stop4921"
         offset="1"
         style="stop-color:#c4d395;stop-opacity:1" />
    </linearGradient>
    <linearGradient
       id="linearGradient8456">
      <stop
         id="stop8458"
         offset="0"
         style="stop-color:#556a3d;stop-opacity:1;" />
      <stop
         id="stop8460"
         offset="1"
         style="stop-color:#95a270;stop-opacity:1;" />
    </linearGradient>
    <linearGradient
       id="linearGradient10228">
      <stop
         id="stop10230"
         offset="0"
         style="stop-color:#0c190b;stop-opacity:1;" />
      <stop
         id="stop10232"
         offset="1"
         style="stop-color:#4a5a3f;stop-opacity:1;" />
    </linearGradient>
    <linearGradient
       id="linearGradient12887"
       inkscape:collect="always">
      <stop
         id="stop12889"
         offset="0"
         style="stop-color:#0e1d15;stop-opacity:1;" />
      <stop
         id="stop12891"
         offset="1"
         style="stop-color:#0e1d15;stop-opacity:0;" />
    </linearGradient>
    <linearGradient
       inkscape:collect="always"
       xlink:href="#linearGradient12887"
       id="linearGradient5131"
       gradientUnits="userSpaceOnUse"
       gradientTransform="matrix(1.672098,0,0,1.672098,-1546.6981,5.7862866)"
       x1="1369.3182"
       y1="471.19"
       x2="1372.608"
       y2="549.04535" />
    <linearGradient
       inkscape:collect="always"
       xlink:href="#linearGradient10228"
       id="linearGradient5134"
       gradientUnits="userSpaceOnUse"
       gradientTransform="matrix(1.672098,0,0,1.672098,-1546.6981,5.7862866)"
       x1="1587.5431"
       y1="364.75665"
       x2="1587.5431"
       y2="441.51706" />
    <linearGradient
       inkscape:collect="always"
       xlink:href="#linearGradient10228"
       id="linearGradient5137"
       gradientUnits="userSpaceOnUse"
       gradientTransform="matrix(1.672098,0,0,1.672098,-1546.6981,5.7862866)"
       x1="1001.5912"
       y1="326.24698"
       x2="1034.7052"
       y2="520.49774" />
    <linearGradient
       inkscape:collect="always"
       xlink:href="#linearGradient10228"
       id="linearGradient5140"
       gradientUnits="userSpaceOnUse"
       gradientTransform="matrix(1.672098,0,0,1.672098,-1546.6981,5.7862866)"
       x1="1328.5016"
       y1="227.87825"
       x2="1355.1592"
       y2="381.39902" />
    <linearGradient
       inkscape:collect="always"
       xlink:href="#linearGradient8456"
       id="linearGradient5143"
       gradientUnits="userSpaceOnUse"
       gradientTransform="matrix(1.672098,0,0,1.672098,-1546.6981,5.7862866)"
       x1="1325.3591"
       y1="309.14783"
       x2="1329.5009"
       y2="406.89307" />
    <linearGradient
       inkscape:collect="always"
       xlink:href="#linearGradient4913"
       id="linearGradient5146"
       gradientUnits="userSpaceOnUse"
       gradientTransform="matrix(1.672098,0,0,1.672098,-1546.6981,5.7862866)"
       x1="964.55701"
       y1="186.16212"
       x2="1050.1089"
       y2="535.72559" />
    <linearGradient
       inkscape:collect="always"
       xlink:href="#linearGradient4913"
       id="linearGradient5155"
       gradientUnits="userSpaceOnUse"
       gradientTransform="matrix(1.672098,0,0,1.672098,-1546.6981,5.7862866)"
       x1="1145.9623"
       y1="179.6335"
       x2="1146.3174"
       y2="357.13696" />
    <linearGradient
       inkscape:collect="always"
       xlink:href="#linearGradient4012"
       id="linearGradient5170"
       gradientUnits="userSpaceOnUse"
       gradientTransform="matrix(1.672098,0,0,1.672098,-1546.6981,5.7862866)"
       x1="995.43939"
       y1="71.001389"
       x2="1038.4138"
       y2="485.64944" />
    <linearGradient
       inkscape:collect="always"
       xlink:href="#linearGradient3111"
       id="linearGradient5179"
       gradientUnits="userSpaceOnUse"
       gradientTransform="matrix(1.672098,0,0,1.672098,-1543.3541,-0.9021034)"
       x1="1391.2407"
       y1="160.43414"
       x2="1397.114"
       y2="276.76532" />
    <radialGradient
       inkscape:collect="always"
       xlink:href="#linearGradient2202"
       id="radialGradient5188"
       gradientUnits="userSpaceOnUse"
       gradientTransform="matrix(1.672098,0,0,0.952283,-181.40252,77.003157)"
       cx="519.02008"
       cy="79.805397"
       fx="519.02008"
       fy="79.805397"
       r="423.87823" />
    <linearGradient
       inkscape:collect="always"
       xlink:href="#linearGradient5935"
       id="linearGradient7178"
       gradientUnits="userSpaceOnUse"
       gradientTransform="translate(-100.54174,12.153398)"
       x1="187.27452"
       y1="27.231438"
       x2="173.11331"
       y2="5.1226401" />
    <radialGradient
       inkscape:collect="always"
       xlink:href="#linearGradient3386"
       id="radialGradient2411"
       gradientUnits="userSpaceOnUse"
       gradientTransform="matrix(4.2587556,-0.4882809,0.1754916,1.5306275,-245.41005,-63.399736)"
       cx="122.20567"
       cy="97.567078"
       fx="122.20567"
       fy="97.567078"
       r="20" />
    <linearGradient
       inkscape:collect="always"
       xlink:href="#linearGradient12887"
       id="linearGradient3149"
       gradientUnits="userSpaceOnUse"
       gradientTransform="matrix(1.672098,0,0,1.672098,-1546.6981,5.7862866)"
       x1="1369.3182"
       y1="471.19"
       x2="1372.608"
       y2="549.04535" />
    <linearGradient
       inkscape:collect="always"
       xlink:href="#linearGradient10228"
       id="linearGradient3152"
       gradientUnits="userSpaceOnUse"
       gradientTransform="matrix(1.672098,0,0,1.672098,-1546.6981,5.7862866)"
       x1="1587.5431"
       y1="364.75665"
       x2="1587.5431"
       y2="441.51706" />
    <linearGradient
       inkscape:collect="always"
       xlink:href="#linearGradient10228"
       id="linearGradient3155"
       gradientUnits="userSpaceOnUse"
       gradientTransform="matrix(1.672098,0,0,1.672098,-1546.6981,5.7862866)"
       x1="1001.5912"
       y1="326.24698"
       x2="1034.7052"
       y2="520.49774" />
    <linearGradient
       inkscape:collect="always"
       xlink:href="#linearGradient10228"
       id="linearGradient3158"
       gradientUnits="userSpaceOnUse"
       gradientTransform="matrix(1.672098,0,0,1.672098,-1546.6981,5.7862866)"
       x1="1328.5016"
       y1="227.87825"
       x2="1355.1592"
       y2="381.39902" />
    <linearGradient
       inkscape:collect="always"
       xlink:href="#linearGradient8456"
       id="linearGradient3161"
       gradientUnits="userSpaceOnUse"
       gradientTransform="matrix(1.672098,0,0,1.672098,-1546.6981,5.7862866)"
       x1="1325.3591"
       y1="309.14783"
       x2="1329.5009"
       y2="406.89307" />
    <linearGradient
       inkscape:collect="always"
       xlink:href="#linearGradient4913"
       id="linearGradient3164"
       gradientUnits="userSpaceOnUse"
       gradientTransform="matrix(1.672098,0,0,1.672098,-1546.6981,5.7862866)"
       x1="964.55701"
       y1="186.16212"
       x2="1050.1089"
       y2="535.72559" />
    <linearGradient
       inkscape:collect="always"
       xlink:href="#linearGradient4913"
       id="linearGradient3173"
       gradientUnits="userSpaceOnUse"
       gradientTransform="matrix(1.672098,0,0,1.672098,-1546.6981,5.7862866)"
       x1="1145.9623"
       y1="179.6335"
       x2="1146.3174"
       y2="357.13696" />
    <linearGradient
       inkscape:collect="always"
       xlink:href="#linearGradient4012"
       id="linearGradient3184"
       gradientUnits="userSpaceOnUse"
       gradientTransform="matrix(1.672098,0,0,1.672098,-1546.6981,5.7862866)"
       x1="995.43939"
       y1="71.001389"
       x2="1038.4138"
       y2="485.64944" />
    <linearGradient
       inkscape:collect="always"
       xlink:href="#linearGradient3111"
       id="linearGradient3193"
       gradientUnits="userSpaceOnUse"
       gradientTransform="matrix(1.672098,0,0,1.672098,-1543.3541,-0.9021034)"
       x1="1391.2407"
       y1="160.43414"
       x2="1397.114"
       y2="276.76532" />
    <radialGradient
       inkscape:collect="always"
       xlink:href="#linearGradient2202"
       id="radialGradient3198"
       gradientUnits="userSpaceOnUse"
       gradientTransform="matrix(1.672098,0,0,0.952283,-181.40252,77.003157)"
       cx="519.02008"
       cy="79.805397"
       fx="519.02008"
       fy="79.805397"
       r="423.87823" />
    <linearGradient
       inkscape:collect="always"
       xlink:href="#linearGradient3111"
       id="linearGradient3203"
       gradientUnits="userSpaceOnUse"
       gradientTransform="matrix(1.672098,0,0,1.672098,-1543.3541,-0.902103)"
       x1="1391.2407"
       y1="160.43414"
       x2="1397.114"
       y2="276.76532" />
    <linearGradient
       inkscape:collect="always"
       xlink:href="#linearGradient3111"
       id="linearGradient4143"
       gradientUnits="userSpaceOnUse"
       gradientTransform="matrix(1.672098,0,0,1.672098,-1543.3541,-0.902103)"
       x1="1391.2407"
       y1="160.43414"
       x2="1397.114"
       y2="276.76532" />
    <linearGradient
       inkscape:collect="always"
       xlink:href="#linearGradient3111"
       id="linearGradient4151"
       gradientUnits="userSpaceOnUse"
       gradientTransform="matrix(1.672098,0,0,1.672098,-1543.3541,-0.902103)"
       x1="1391.2407"
       y1="160.43414"
       x2="1397.114"
       y2="276.76532" />
    <linearGradient
       inkscape:collect="always"
       xlink:href="#linearGradient12887"
       id="linearGradient4156"
       gradientUnits="userSpaceOnUse"
       gradientTransform="matrix(1.672098,0,0,1.672098,-1546.6981,5.7862866)"
       x1="1369.3182"
       y1="471.19"
       x2="1372.608"
       y2="549.04535" />
    <linearGradient
       inkscape:collect="always"
       xlink:href="#linearGradient8456"
       id="linearGradient4161"
       gradientUnits="userSpaceOnUse"
       gradientTransform="matrix(1.672098,0,0,1.672098,-1546.6981,5.7862866)"
       x1="1325.3591"
       y1="309.14783"
       x2="1329.5009"
       y2="406.89307" />
    <radialGradient
       inkscape:collect="always"
       xlink:href="#linearGradient2202"
       id="radialGradient4164"
       gradientUnits="userSpaceOnUse"
       gradientTransform="matrix(1.6389222,0,0,0.93338892,-163.71251,84.918045)"
       cx="519.02008"
       cy="79.805397"
       fx="519.02008"
       fy="79.805397"
       r="423.87823" />
    <linearGradient
       inkscape:collect="always"
       xlink:href="#linearGradient3111"
       id="linearGradient4171"
       gradientUnits="userSpaceOnUse"
       gradientTransform="matrix(1.672098,0,0,1.672098,-1543.3541,-0.902103)"
       x1="1391.2407"
       y1="160.43414"
       x2="1397.114"
       y2="276.76532" />
    <linearGradient
       inkscape:collect="always"
       xlink:href="#linearGradient4913"
       id="linearGradient4182"
       gradientUnits="userSpaceOnUse"
       gradientTransform="matrix(1.672098,0,0,1.672098,-1546.6981,5.7862866)"
       x1="1145.9623"
       y1="179.6335"
       x2="1146.3174"
       y2="357.13696" />
    <linearGradient
       inkscape:collect="always"
       xlink:href="#linearGradient4012"
       id="linearGradient4187"
       gradientUnits="userSpaceOnUse"
       gradientTransform="matrix(1.672098,0,0,1.672098,-1546.6981,5.7862866)"
       x1="995.43939"
       y1="71.001389"
       x2="1038.4138"
       y2="485.64944" />
    <linearGradient
       inkscape:collect="always"
       xlink:href="#linearGradient4913"
       id="linearGradient4192"
       gradientUnits="userSpaceOnUse"
       gradientTransform="matrix(1.672098,0,0,1.672098,-1546.6981,5.7862866)"
       x1="964.55701"
       y1="186.16212"
       x2="1050.1089"
       y2="535.72559" />
    <linearGradient
       inkscape:collect="always"
       xlink:href="#linearGradient8456"
       id="linearGradient4197"
       gradientUnits="userSpaceOnUse"
       gradientTransform="matrix(1.672098,0,0,1.672098,-1546.6981,5.7862866)"
       x1="1325.3591"
       y1="309.14783"
       x2="1329.5009"
       y2="406.89307" />
    <linearGradient
       inkscape:collect="always"
       xlink:href="#linearGradient12887"
       id="linearGradient4202"
       gradientUnits="userSpaceOnUse"
       gradientTransform="matrix(1.672098,0,0,1.672098,-1546.6981,5.7862866)"
       x1="1369.3182"
       y1="471.19"
       x2="1372.608"
       y2="549.04535" />
    <linearGradient
       inkscape:collect="always"
       xlink:href="#linearGradient10228"
       id="linearGradient4207"
       gradientUnits="userSpaceOnUse"
       gradientTransform="matrix(1.672098,0,0,1.672098,-1546.6981,5.7862866)"
       x1="1587.5431"
       y1="364.75665"
       x2="1587.5431"
       y2="441.51706" />
    <linearGradient
       inkscape:collect="always"
       xlink:href="#linearGradient10228"
       id="linearGradient4212"
       gradientUnits="userSpaceOnUse"
       gradientTransform="matrix(1.672098,0,0,1.672098,-1546.6981,5.7862866)"
       x1="1001.5912"
       y1="326.24698"
       x2="1034.7052"
       y2="520.49774" />
    <linearGradient
       inkscape:collect="always"
       xlink:href="#linearGradient3111"
       id="linearGradient4226"
       gradientUnits="userSpaceOnUse"
       gradientTransform="matrix(1.672098,0,0,1.672098,-1543.3541,-0.902103)"
       x1="1391.2407"
       y1="160.43414"
       x2="1397.114"
       y2="276.76532" />
  </defs>
  <sodipodi:namedview
     id="base"
     pagecolor="#ffffff"
     bordercolor="#666666"
     borderopacity="1.0"
     inkscape:pageopacity="0.0"
     inkscape:pageshadow="2"
     inkscape:zoom="1"
     inkscape:cx="814.74209"
     inkscape:cy="571.897"
     inkscape:current-layer="layer1"
     showgrid="false"
     inkscape:grid-bbox="true"
     inkscape:document-units="px"
     inkscape:window-width="1920"
     inkscape:window-height="1030"
     inkscape:window-x="-8"
     inkscape:window-y="23"
     showguides="true"
     inkscape:guide-bbox="true"
     width="1488.189px"
     height="1052.3622px"
     inkscape:window-maximized="1" />
  <metadata
     id="metadata2195">
    <rdf:RDF>
      <cc:Work
         rdf:about="">
        <dc:format>image/svg+xml</dc:format>
        <dc:type
           rdf:resource="http://purl.org/dc/dcmitype/StillImage" />
      </cc:Work>
    </rdf:RDF>
  </metadata>
  <g
     id="layer1"
     inkscape:label="faces"
     inkscape:groupmode="layer"
     style="display:inline">
    <g
       id="background">
      <rect
         y="80.278992"
         x="15.490656"
         height="791.28699"
         style="fill:url(#radialGradient4164);fill-opacity:1;stroke:none"
         id="rect7777"
         inkscape:r_cx="true"
         inkscape:r_cy="true"
         width="1389.4069" />
      <path
         style="opacity:0.72330101;fill:#bcc98f;fill-opacity:0.26857144;stroke:none"
         d="M 1132.7188 91.1875 C 1131.518 91.201868 1130.3265 91.236299 1129.125 91.28125 C 1115.7458 91.67129 1102.9787 97.36996 1089.7188 97.71875 C 1073.2421 87.06753 1048.4515 95.11926 1041 113.15625 C 1034.0954 120.0016 1024.2575 114.09399 1015.9375 115.65625 C 991.33982 115.66825 964.49097 118.96231 945.34375 135.75 C 941.61244 141.84474 936.19103 147.82377 928.5 147.875 C 922.2119 150.43026 917.7654 158.9393 909.75 157.03125 C 879.43011 155.97946 848.98822 155.85842 818.71875 158.15625 C 810.25394 158.98895 800.82118 160.15984 793.25 162.0625 C 815.0343 165.89719 837.42126 166.26703 859.59375 166.625 C 880.17796 168.01203 901.15589 164.83285 921.5 168.25 C 931.68664 177.91464 946.88438 175.5462 959.75 177.25 C 985.62855 177.78669 1011.5758 176.0908 1037.3438 174.46875 C 1044.3193 172.65356 1052.9935 174.85587 1055.4688 182.3125 C 1065.8646 194.17473 1084.1035 194.3831 1098.125 190.5 C 1105.0545 188.41923 1110.1876 182.3156 1116.7188 180.0625 C 1131.661 180.49511 1146.79 180.87658 1161.5 178.46875 C 1167.0731 178.57266 1169.6825 184.14207 1171.5625 188.5625 C 1175.9287 195.07895 1187.5227 199.05077 1192.6562 191.25 C 1197.9556 185.89882 1205.8384 188.41607 1211.625 191.21875 C 1239.5052 199.53891 1269.8404 195.53834 1296.75 185.53125 C 1326.9104 187.88477 1371.3316 188.02781 1404.9062 185 L 1404.9062 146.9375 C 1372.5614 138.80815 1338.0866 140.84179 1305.0625 138.59375 C 1287.7134 125.43951 1265.4756 122.77618 1244.5938 120.46875 C 1237.5422 113.44146 1232.1005 103.73846 1221.6562 101.34375 C 1209.8456 97.01942 1197.0244 99.59206 1185.0625 101.5 C 1168.6096 94.220791 1150.7282 90.971977 1132.7188 91.1875 z "
         id="path9235" />
      <path
         style="fill:url(#linearGradient4226);fill-opacity:1;fill-rule:evenodd;stroke:none"
         d="M 15.5 80.28125 L 15.5 614.78125 L 1404.9062 614.21875 L 1404.9062 175.375 C 1401.7604 173.05961 1398.2066 170.55433 1394.2812 167.9375 C 1379.5507 158.11675 1347.6192 149.5224 1326.75 150.75 C 1305.8809 151.97759 1297.2844 123.72819 1275.1875 131.09375 C 1253.091 138.45932 1251.8915 131.11145 1232.25 128.65625 C 1212.6085 126.20106 1211.3608 129.87559 1200.3125 138.46875 C 1189.2642 147.0619 1168.3922 128.65625 1157.3438 128.65625 C 1146.2948 128.65625 1111.9455 140.9204 1093.5312 151.96875 C 1075.1173 163.0171 1065.2984 176.51769 1054.25 174.0625 C 1043.2016 171.60732 1035.8074 165.45989 1023.5312 166.6875 C 1011.2554 167.91508 1006.3743 151.97347 997.78125 155.65625 C 989.188 159.33903 980.57544 145.82194 974.4375 153.1875 C 968.29939 160.55307 970.74883 160.54481 953.5625 163 C 936.37618 165.45518 938.85198 177.74587 929.03125 182.65625 C 919.21052 187.56662 904.45463 182.65125 893.40625 170.375 C 882.35802 158.09906 846.77116 182.66096 830.8125 186.34375 C 814.85366 190.02652 822.21337 177.75 809.9375 177.75 C 797.66146 177.75 790.28949 169.13797 780.46875 163 C 770.64785 156.86203 764.52588 169.15625 752.25 169.15625 C 739.97397 169.15625 737.50354 180.19102 724 166.6875 C 710.49647 153.18395 701.90625 154.40625 701.90625 154.40625 C 701.90625 154.40625 672.45043 161.79953 666.3125 167.9375 C 660.17457 174.07547 595.10199 192.46934 585.28125 201.0625 C 575.46052 209.65567 559.53057 214.56721 550.9375 218.25 C 542.34424 221.93278 541.10199 209.6698 531.28125 212.125 C 521.46052 214.58017 515.31653 217.03064 510.40625 208.4375 C 505.49582 199.84433 462.52587 175.29835 450.25 164.25 C 437.97395 153.20165 425.70462 149.50884 414.65625 148.28125 C 403.60786 147.05365 385.187 127.41981 376.59375 129.875 C 368.00067 132.33018 344.6823 131.09788 332.40625 126.1875 C 320.13038 121.27713 302.95934 124.97288 295.59375 120.0625 C 288.22817 115.15213 278.38322 117.60732 268.5625 120.0625 C 258.74176 122.51769 246.49043 112.6875 239.125 112.6875 C 231.7594 112.6875 213.33838 97.94575 201.0625 88.125 C 197.16885 85.010097 190.67033 82.40648 183.625 80.28125 L 15.5 80.28125 z "
         id="path2236" />
      <path
         style="fill:#bcc98f;fill-opacity:0.26857144;stroke:none"
         d="M 179.34375 80.28125 C 176.22215 82.517371 173.6999 85.656854 172.25 89.1875 C 170.1079 90.032693 167.47984 89.389456 165.1875 90.0625 C 159.52131 91.134282 152.78692 93.364005 150.6875 99.21875 C 150.7796 100.89887 149.33302 101.49144 147.96875 100.53125 C 137.56541 97.658132 125.99677 97.669874 115.875 101.65625 C 113.07953 102.83888 108.90435 105.43602 110.375 109.03125 C 110.19761 111.15297 107.00652 109.78342 105.5 110.3125 C 97.980341 111.01392 89.967262 111.64972 83.46875 115.8125 C 81.640457 116.81193 81.113326 119.43294 82.96875 120.6875 C 88.660257 124.89365 96.090227 125.52794 102.90625 126.375 C 114.49816 127.31271 126.4536 126.86025 137.5 123.1875 C 144.48321 125.16055 151.88106 125.68092 159 126.625 C 163.65629 132.14089 171.47403 133.30726 178.28125 133.8125 C 182.69776 134.10984 187.10325 133.5157 191.40625 132.8125 C 205.33619 139.62525 221.46277 140.62503 236.71875 138.90625 C 245.87711 137.71997 255.16612 135.23014 262.8125 129.9375 C 264.94662 130.0226 267.56563 128.79522 268.84375 131.03125 C 275.00462 135.61374 282.9767 136.375 290.375 137.28125 C 302.71378 138.20485 315.5702 137.9196 327.25 133.53125 C 330.07377 132.3615 333.24002 134.03703 336.25 134 C 355.60301 135.87923 375.36918 135.74847 394.46875 131.96875 C 399.24893 130.6877 404.85022 129.9022 408.34375 126.0625 C 409.7713 123.62247 406.42755 121.8024 404.625 120.9375 C 393.39438 116.30344 381.06413 115.57723 369.0625 114.8125 C 356.06642 114.28358 342.97369 114.6712 330.09375 116.5625 C 328.67378 115.52262 330.31311 113.47784 329.53125 112 C 327.56162 105.49144 320.34233 102.64848 314.1875 101.28125 C 309.20332 100.24143 303.95436 100.20611 298.9375 101.03125 C 296.69512 99.03374 294.70155 96.335076 291.96875 94.78125 C 279.35174 86.772368 263.57421 85.274747 248.90625 87 C 240.75698 88.0165 232.74574 90.583685 225.75 94.90625 C 222.09683 94.457229 218.33991 94.93632 214.75 94.75 C 214.11752 91.688229 212.83034 87.00471 208.9375 87 C 206.79856 87.907003 206.37249 84.806788 205 83.71875 C 203.91837 82.425933 202.68667 81.260166 201.3125 80.28125 L 179.34375 80.28125 z "
         id="path9311" />
      <path
         style="fill:url(#linearGradient4187);fill-opacity:1;fill-rule:evenodd;stroke:none"
         d="M 15.5 80.28125 L 15.5 784.59375 L 1404.9062 784.59375 L 1404.9062 597.6875 C 1400.9034 596.58695 1395.4799 595.47695 1388.0938 594.65625 C 1366.7237 592.28184 1195.7748 511.53069 1169.6562 509.15625 C 1143.5375 506.78182 1031.9322 445.06077 1010.5625 437.9375 C 989.19255 430.81424 934.58698 430.8125 906.09375 430.8125 C 877.60069 430.8125 763.61761 383.30963 732.75 371.4375 C 701.88258 359.56537 614.02768 321.58975 599.78125 304.96875 C 585.53463 288.34777 500.05446 250.3426 466.8125 245.59375 C 433.57051 240.84491 388.46519 193.37382 374.21875 188.625 C 359.97215 183.87614 329.08743 174.37097 302.96875 157.75 C 276.85008 141.12902 264.99723 152.99713 253.125 141.125 C 241.25295 129.25287 207.99599 122.125 191.375 122.125 C 174.75401 122.125 158.15162 103.125 139.15625 103.125 C 126.4828 103.125 111.72034 89.427169 103.28125 80.28125 L 15.5 80.28125 z "
         id="path3129" />
      <path
         style="fill:#bcc98f;fill-opacity:0.26857144;stroke:none"
         d="M 1029.9062 354.34375 C 1028.7056 354.35812 1027.4827 354.39255 1026.2812 354.4375 C 1012.9021 354.82754 1000.135 360.52621 986.875 360.875 C 970.39837 350.22378 945.60776 358.27551 938.15625 376.3125 C 931.25169 383.15785 921.4138 377.25024 913.09375 378.8125 C 888.49609 378.8245 861.67847 382.11856 842.53125 398.90625 C 838.79994 405.00099 833.34728 410.98002 825.65625 411.03125 C 819.36815 413.58651 814.92165 422.09555 806.90625 420.1875 C 776.58636 419.13571 746.14447 419.01467 715.875 421.3125 C 707.41019 422.1452 697.97743 423.31609 690.40625 425.21875 C 712.19055 429.05344 734.57751 429.39203 756.75 429.75 C 777.33421 431.13703 798.31214 427.9891 818.65625 431.40625 C 828.84289 441.07089 844.04063 438.6712 856.90625 440.375 C 882.7848 440.91169 908.73214 439.24705 934.5 437.625 C 941.47569 435.80981 950.14984 438.01212 952.625 445.46875 C 963.02072 457.33098 981.25973 457.53935 995.28125 453.65625 C 1002.2108 451.57548 1007.3439 445.47185 1013.875 443.21875 C 1028.8175 443.65136 1043.9462 444.03283 1058.6562 441.625 C 1064.2294 441.72891 1066.8387 447.29832 1068.7188 451.71875 C 1073.0849 458.2352 1084.6788 462.20702 1089.8125 454.40625 C 1095.1118 449.05507 1102.9946 451.57232 1108.7812 454.375 C 1136.6615 462.69516 1166.9967 458.69459 1193.9062 448.6875 C 1228.501 451.38704 1263.3972 449.04034 1297.625 444.46875 C 1312.4091 446.3498 1326.6637 451.42973 1341.7188 450.9375 C 1362.8075 451.68376 1384.3681 451.19251 1404.9062 446.28125 L 1404.9062 434.71875 C 1401.3123 434.00904 1397.6457 433.49398 1394.2188 432.375 C 1374.6768 428.84999 1354.3051 431.83528 1334.7812 429 C 1329.3606 422.96801 1324.2174 415.57178 1315.5938 414.3125 C 1279.3404 401.26907 1240.0466 404.32505 1202.2188 401.75 C 1184.8697 388.59576 1162.6319 385.93243 1141.75 383.625 C 1134.6986 376.59771 1129.2567 366.89471 1118.8125 364.5 C 1107.0017 360.17567 1094.1805 362.74831 1082.2188 364.65625 C 1065.7657 357.37704 1047.9158 354.12823 1029.9062 354.34375 z "
         id="path9204" />
      <path
         style="opacity:0.83980557;fill:#bcc98f;fill-opacity:0.26857144;stroke:none"
         d="M 1229.5312 326.46875 C 1216.8766 326.89694 1204.7274 333.25305 1196.625 342.9375 C 1193.3938 345.49907 1192.4107 352.82286 1187.375 350.6875 C 1178.2101 350.69859 1175.2078 361.72916 1173.7188 368.9375 C 1165.2668 369.37615 1156.4132 368.22412 1147.8125 369.28125 C 1131.3424 359.10462 1112.4984 353.0494 1093.3125 350.65625 C 1058.7797 346.59448 1021.6106 350.17591 991.90625 369.03125 C 985.47241 372.68943 980.74799 379.04725 975.46875 383.75 C 963.65754 381.80737 951.29677 381.8957 939.5625 384.34375 C 925.07216 387.56263 908.10586 394.23936 903.46875 409.5625 C 901.62803 413.04178 905.46804 417.86431 902.125 420.3125 C 871.80169 415.8598 841.03423 414.94227 810.4375 416.1875 C 782.18202 417.9879 753.12778 419.71502 726.6875 430.625 C 722.44375 432.66124 714.57662 436.88041 717.9375 442.625 C 726.16234 451.66482 739.37101 453.54652 750.625 456.5625 C 795.5912 465.4611 842.12461 465.73678 887.6875 461.3125 C 894.77389 461.39968 902.22698 457.49605 908.875 460.25 C 936.3728 470.58151 966.60701 471.26819 995.65625 469.09375 C 1013.0742 466.96017 1031.8079 465.16356 1046.3125 454.375 C 1049.3216 449.1107 1055.5069 451.95033 1060.5312 451.75 C 1078.5332 464.21048 1100.4384 470.08212 1122 472.875 C 1157.9172 476.92152 1195.8922 474.57053 1228.6875 458.53125 C 1238.8181 460.18681 1249.1959 461.60627 1259.5938 460.90625 C 1275.62 459.71676 1294.0376 456.92356 1305 443.9375 C 1321.7601 441.71483 1339.1219 440.52015 1355.5625 435.875 C 1384.237 443.69105 1397.6503 446.2174 1404.9062 446.21875 L 1404.9062 384.375 C 1381.4764 378.4504 1351.0497 376.96819 1330.9062 382.53125 C 1327.6943 384.79182 1324.2833 383.39301 1324.5 379.4375 C 1319.5573 365.65365 1303.7462 360.3983 1290.4062 357.875 C 1285.0094 356.29045 1278.7932 357.80234 1273.75 355.8125 C 1266.9644 339.2889 1250.355 326.57128 1232.0625 326.46875 C 1231.2153 326.44389 1230.3749 326.4402 1229.5312 326.46875 z "
         id="path9369" />
      <path
         style="fill:url(#linearGradient4182);fill-opacity:1;fill-rule:evenodd;stroke:none"
         d="M 15.5 242.78125 L 15.5 794.125 L 1404.9062 796.8125 L 1404.9062 591.90625 C 1403.3427 590.52348 1401.8959 589.26567 1399.9688 587.53125 C 1376.2246 566.16144 1281.2431 551.90741 1252.75 556.65625 C 1224.257 561.40512 1160.1462 542.40165 1119.7812 523.40625 C 1079.4158 504.41087 996.30386 464.06368 960.6875 468.8125 C 925.07115 473.56137 853.83295 440.30906 808.71875 426.0625 C 763.60472 411.81595 720.86974 388.05962 699.5 376.1875 C 678.13009 364.31536 637.77663 364.31307 618.78125 366.6875 C 599.78589 369.06192 485.8085 321.59033 469.1875 307.34375 C 452.56652 293.09722 431.21055 290.71472 397.96875 274.09375 C 364.72675 257.47277 352.84375 255.09375 352.84375 255.09375 C 352.84375 255.09375 331.46474 250.34491 314.84375 255.09375 C 298.22275 259.8426 274.496 247.97049 257.875 255.09375 C 241.25403 262.21703 207.99537 245.59375 189 245.59375 C 170.00463 245.59375 136.77665 250.3426 117.78125 245.59375 C 98.785852 240.84491 84.526651 245.5949 65.53125 250.34375 C 48.887965 254.50456 46.242665 247.71731 15.5 242.78125 z "
         id="path4030" />
      <path
         inkscape:connector-curvature="0"
         id="path9286"
         d="m 655.74738,451.98221 c -18.29254,0.10253 -34.90189,12.82015 -41.6875,29.34375 -5.04315,1.98984 -11.25939,0.47795 -16.65625,2.0625 -13.33993,2.5233 -29.15106,7.77865 -34.09375,21.5625 0.21674,3.95551 -3.19433,5.35432 -6.40625,3.09375 -24.49262,-6.7642 -51.73278,-6.72888 -75.5625,2.65625 -6.58139,2.78427 -16.46236,8.91074 -13,17.375 -0.41763,4.99517 -7.92195,1.78563 -11.46875,3.03125 -17.70357,1.65134 -36.54428,3.10579 -51.84375,12.90625 -4.30436,2.35295 -5.55573,8.51513 -1.1875,11.46875 13.39954,9.90256 30.87507,11.46601 46.92206,13.46023 27.29089,2.20766 55.47761,1.09279 81.48419,-7.55398 16.4406,4.64515 33.8141,5.85763 50.57425,8.0803 10.96232,12.98606 29.36654,15.75683 45.39282,16.94632 10.39779,0.70002 20.77737,-0.71481 30.90793,-2.37037 32.79532,16.03928 70.79244,18.41184 106.70964,14.36532 21.56157,-2.79288 43.44471,-8.68609 61.44661,-21.14657 5.02438,0.20033 11.20966,-2.6393 14.21875,2.625 14.50457,10.78856 33.26515,12.58623 50.683,14.71981 29.04924,2.17444 59.2567,1.4867 86.7545,-8.84481 6.64802,-2.75395 14.11976,1.15507 21.20612,1.06789 45.5629,4.42428 92.0777,4.14321 137.0439,-4.75539 11.254,-3.01598 24.4626,-4.89768 32.6875,-13.9375 3.3609,-5.74459 -4.5063,-9.96376 -8.75,-12 -26.4403,-10.90998 -55.4945,-12.6371 -83.75,-14.4375 -30.5967,-1.24523 -61.3642,-0.3277 -91.68752,4.125 -3.34304,-2.44819 0.49697,-7.27072 -1.34375,-10.75 -4.63711,-15.32314 -21.60341,-21.99987 -36.09375,-25.21875 -11.73427,-2.44805 -24.09504,-2.53638 -35.90625,-0.59375 -5.27924,-4.70275 -9.9885,-11.05793 -16.42234,-14.71611 -29.70429,-18.85534 -66.8794,-22.4293 -101.41224,-18.36753 -19.18584,2.39315 -38.03908,8.43826 -54.50917,18.61489 -8.60068,-1.05713 -17.45451,0.0949 -25.90625,-0.34375 -1.48903,-7.20834 -4.49133,-18.23891 -13.65625,-18.25 -5.03572,2.13536 -6.01875,-5.18843 -9.25,-7.75 -8.64259,-10.33008 -21.88309,-16.86653 -35.4375,-16.46875 z"
         style="fill:#bcc98f;fill-opacity:0.26857144;stroke:none" />
      <path
         style="fill:url(#linearGradient4192);fill-opacity:1;fill-rule:evenodd;stroke:none"
         d="M 47.46875 402.3125 C 37.487641 402.46335 27.134322 403.97837 15.5 406.875 L 15.5 871.5625 L 1404.9062 871.5625 L 1404.9062 666.90625 C 1394.0787 663.70365 1375.5165 657.76535 1358.4688 650.09375 C 1332.5437 638.42756 1263.8312 621.57747 1237.9062 620.28125 C 1211.9814 618.98501 1200.3148 612.50993 1173.0938 600.84375 C 1145.8727 589.17755 1077.1923 594.36252 1055.1562 600.84375 C 1033.1199 607.32495 863.30486 590.48754 847.75 596.96875 C 832.19514 603.44999 597.58362 543.80996 576.84375 538.625 C 556.10388 533.44002 451.09857 498.44995 429.0625 491.96875 C 407.02643 485.48751 377.21242 481.59121 364.25 476.40625 C 351.28772 471.22127 342.22741 471.23375 327.96875 469.9375 C 313.7101 468.64125 269.63116 454.37374 250.1875 451.78125 C 230.74385 449.18877 209.99502 438.8275 199.625 437.53125 C 189.25515 436.23502 160.74101 433.6512 142.59375 423.28125 C 124.4463 412.91134 106.29986 412.88747 80.375 406.40625 C 69.032882 403.57072 58.466454 402.14629 47.46875 402.3125 z "
         id="path7553" />
      <path
         style="fill:url(#linearGradient4197);fill-opacity:1;fill-rule:evenodd;stroke:none"
         d="M 58.125 491.96875 C 47.905453 492.05499 35.637191 495.67818 15.5 502 L 15.5 871.5625 L 1404.9062 871.5625 L 1404.9062 703.0625 C 1375.8082 694.93149 1308.892 676.85929 1292.7188 677.9375 C 1271.9423 679.32258 1258.0868 665.48086 1229 672.40625 C 1199.9132 679.33166 1166.6796 646.09276 1133.4375 641.9375 C 1100.1955 637.78227 1068.3356 612.86191 1035.0938 601.78125 C 1001.8517 590.7006 938.14115 589.30041 918.75 582.375 C 899.35885 575.44959 856.41424 578.21777 846.71875 574.0625 C 837.02308 569.90727 794.0999 569.90625 776.09375 569.90625 C 758.08776 569.90625 684.6735 542.20867 669.4375 543.59375 C 654.20168 544.97881 619.57866 538.03931 600.1875 528.34375 C 580.79635 518.64818 533.69364 535.29333 515.6875 542.21875 C 497.68149 549.14414 451.98199 538.04941 420.125 526.96875 C 388.26819 515.88812 371.63207 522.81352 357.78125 526.96875 C 343.93043 531.124 316.24693 528.35585 303.78125 535.28125 C 291.31543 542.20667 264.9749 536.66231 246.96875 518.65625 C 228.96276 500.65018 204.03722 507.58467 186.03125 513.125 C 168.02509 518.66533 136.16333 503.4375 122.3125 503.4375 C 108.46168 503.4375 94.609886 502.0504 75.21875 495.125 C 69.15902 492.96081 63.889553 491.9201 58.125 491.96875 z "
         id="path7581" />
      <path
         inkscape:r_cx="true"
         d="m 512.28429,635.26409 c 107.39569,-2.61941 75.96293,7.8582 110.0152,-7.85822 34.05227,-15.71643 68.10454,-20.95524 146.68664,10.47761 78.58225,31.43289 206.93315,62.86577 256.70187,65.48517 49.7687,2.61939 7.8581,65.48511 -7.8582,68.10451 -15.7166,2.6194 -529.12007,-20.9552 -529.12007,-34.0523 0,-13.09698 23.57456,-96.91798 23.57456,-102.15677 z"
         style="fill:url(#linearGradient3158);fill-opacity:1;fill-rule:evenodd;stroke:none"
         id="path11129"
         inkscape:r_cy="true"
         inkscape:connector-curvature="0" />
      <path
         style="fill:url(#linearGradient4212);fill-opacity:1;fill-rule:evenodd;stroke:none"
         d="M 179.53125 555.0625 C 173.41247 555.08297 167.84891 555.21875 162.9375 555.21875 C 143.292 555.21875 136.75989 561.78685 97.46875 564.40625 C 61.768135 566.78628 62.242301 569.52339 15.5 555.28125 L 15.5 871.5625 L 1404.9062 871.5625 L 1404.9062 748.03125 C 1337.0572 745.2458 1042.2039 717.47083 1015.5625 716.3125 C 985.43935 715.00279 770.65407 704.54013 754.9375 694.0625 C 739.22112 683.58487 673.72242 673.11941 646.21875 670.5 C 618.71492 667.8806 563.71073 654.75607 545.375 642.96875 C 527.0391 631.1814 504.79057 636.44357 479.90625 624.65625 C 455.02191 612.86894 441.92122 624.63667 419.65625 615.46875 C 397.39126 606.30084 386.91285 597.14178 360.71875 605 C 334.52467 612.85823 324.05739 594.50888 307.03125 584.03125 C 290.00511 573.55363 280.83352 581.438 246.78125 567.03125 C 221.24205 556.22621 197.8876 555.0011 179.53125 555.0625 z "
         id="path9353" />
      <path
         style="fill:url(#linearGradient4207);fill-opacity:1;fill-rule:evenodd;stroke:none"
         d="M 1128.625 663.0625 C 1103.2495 663.3183 1073.7845 670.5 1060.6875 670.5 C 1039.7323 670.5 906.13706 680.94868 882.5625 686.1875 C 858.98776 691.4263 777.77888 717.65067 762.0625 715.03125 C 746.34611 712.41187 638.94159 728.09937 348.1875 730.71875 L 15.5 723.15625 L 15.5 871.5625 L 1404.9062 871.5625 L 1404.9062 761.4375 C 1401.8639 759.69522 1398.0738 758.12001 1393.3438 756.9375 C 1372.3884 751.6987 1327.8648 715.03125 1293.8125 715.03125 C 1259.7603 715.03125 1244.0289 701.91514 1228.3125 691.4375 C 1212.5962 680.95988 1186.424 694.04899 1165.4688 673.09375 C 1157.6106 665.23553 1143.8503 662.90902 1128.625 663.0625 z "
         id="path10246" />
      <path
         style="fill:url(#linearGradient4202);fill-opacity:1;fill-rule:evenodd;stroke:none"
         d="M 15.5 657.1875 L 15.5 871.5625 L 1404.9062 871.5625 L 1404.9062 733.5 C 1402.3488 733.20581 1400.289 733.37733 1399.6875 734.34375 C 1395.8611 737.69905 1376.5936 737.692 1372.1562 736.75 C 1369.2061 737.1999 1358.706 742.5467 1356.125 743.9375 C 1356.194 737.2941 1332.9833 726.86946 1328.25 731.6875 C 1327.1253 733.88518 1318.5167 738.22365 1316.0312 737.03125 C 1313.3881 736.19465 1305.445 728.7839 1302.2812 729.0625 C 1298.4253 728.86816 1285.3173 736.0259 1282.9688 738.875 C 1280.9209 740.0886 1273.7366 735.77365 1271.625 735.96875 C 1264.6974 734.69807 1235.6582 735.38655 1229.5625 730.6875 C 1221.7601 725.856 1186.1466 723.07881 1177.4375 724.0625 C 1172.4005 723.73221 1156.8083 711.78367 1154.875 707.25 C 1152.554 704.82523 1139.2669 706.5955 1138.25 710.15625 C 1135.602 714.44222 1116.0482 717.95206 1112.3125 714.3125 C 1106.6824 711.36513 1082.226 712.57942 1076.4688 714.28125 C 1072.1187 714.4794 1053.4261 712.2465 1049.9062 716.03125 C 1047.9256 717.90994 1042.1927 727.08752 1040.6875 729.3125 C 1035.8271 723.25669 1006.5311 720.35579 999.96875 723.03125 C 996.45664 724.79943 981.07955 728.52004 977.09375 727.25 C 971.97883 726.1483 952.3977 718.64163 946.90625 719.96875 C 943.32592 720.64273 928.67758 721.31545 925.0625 721.3125 C 920.94856 722.37658 903.50326 721.3055 900.34375 717.8125 C 896.14903 715.89336 878.73403 719.83595 874.3125 718.78125 C 869.86869 718.33371 855.13075 708.65401 850.375 709.9375 C 846.69008 710.89744 832.60208 716.79782 828.59375 716.65625 C 825.83728 716.71885 815.25943 717.68262 812.75 719 C 809.12917 720.41267 794.29546 718.82899 790.90625 717.1875 C 783.03092 715.03076 751.2236 718.67651 743.46875 720.0625 C 740.37281 720.66253 728.42626 725.42111 725.1875 723.6875 C 722.23335 722.45688 710.10959 717.83851 706.75 718.9375 C 701.41272 719.85085 679.5724 719.45017 674.65625 716.65625 C 671.42849 715.51586 658.68182 717.92863 655.65625 718.78125 C 651.12866 719.06469 632.60622 716.51601 628.625 719.625 C 621.97904 721.52858 597.24065 712.76223 590.625 715.03125 C 587.77944 715.75551 577.94586 721.90546 575.6875 723.75 C 576.41074 719.69195 566.09515 709.04169 562.03125 709.59375 C 559.53193 709.61335 552.77112 715.90095 551.71875 717.9375 C 549.48352 720.40323 539.28102 715.85987 537 715.09375 C 532.83693 713.00753 514.19131 712.42345 510.3125 715.34375 C 505.6003 717.51926 486.20574 713.4262 481.34375 714.4375 C 474.88627 714.28697 449.12635 709.3233 442.75 711.03125 C 440.6644 711.97321 433.05633 717.02206 431.125 718.21875 C 428.13033 713.00257 405.64346 709.14674 400.75 711.90625 C 397.58599 706.12884 373.37008 704.83474 368.53125 707.78125 C 363.54523 710.30218 343.92332 703.22353 340.1875 700.03125 C 336.47384 698.34401 323.06444 705.86415 321.3125 709.0625 C 320.83645 706.18736 311.96556 700.79944 309.25 701.5625 C 305.61104 702.67354 290.4167 704.16355 286.65625 702.75 C 281.61399 700.9085 261.41463 694.23077 256.09375 693.3125 C 228.78408 687.15983 117.30391 672.96835 90.90625 662.75 C 79.177109 660.70897 38.802966 659.45164 15.5 657.1875 z "
         id="path12012" />
      <path
         style="opacity:0.66504852;fill:#bcc98f;fill-opacity:0.26857144;stroke:none"
         d="M 152.59375 358.90625 C 127.72892 359.32928 100.76655 363.6918 82.84375 377 C 78.810314 379.87767 76.582205 383.78006 74 387.25 C 62.993545 383.64653 50.044665 382.21612 38.4375 385.25 C 28.01665 387.68321 18.169578 393.95153 16.53125 402.21875 C 16.207744 402.37759 15.865625 402.47858 15.5 402.59375 L 15.5 442.125 C 24.128452 444.16709 34.239755 445.22999 49.84375 445.75 C 72.780564 446.29624 95.880213 444.37283 117.875 440.0625 C 139.09658 446.00623 162.73366 445.71851 184.8125 443.25 C 213.32805 456.82851 249.31808 459.0641 282.40625 456.125 C 301.26715 454.25846 319.76469 449.72969 335.4375 441.875 C 369.70742 446.33162 405.97039 446.44066 439.59375 439.46875 C 447.67242 437.30699 458.19293 435.27489 461.40625 428.78125 C 461.70671 422.80778 452.37418 420.23564 446.1875 418.125 C 424.60702 412.00014 400.96324 411.35561 378.15625 410.6875 C 377.48755 408.30928 377.57227 405.13826 374.21875 403.40625 C 361.22839 395.64652 342.87764 395.20818 326.9375 396.65625 C 322.39881 397.59004 317.95004 398.03298 313.8125 395.96875 C 307.33782 393.84119 299.59232 393.65098 295.03125 389.25 C 275.65884 379.02298 250.68546 377.10759 227.40625 377.53125 C 217.51224 370.72454 205.52286 365.59024 192.28125 362.84375 C 179.47623 360.00142 166.00504 358.77295 152.59375 358.90625 z "
         id="path9344" />
    </g>
    <rect
       style="opacity:1;fill:url(#radialGradient2411);fill-opacity:1.0;fill-rule:nonzero;stroke:#544b31;stroke-width:1.60000002;stroke-linecap:round;stroke-linejoin:round;stroke-miterlimit:4;stroke-dasharray:none;stroke-opacity:1;display:inline;filter:url(#filter4339)"
       id="status"
       width="135.15625"
       height="36.71875"
       x="258.59375"
       y="15.643432"
       ry="10.546875"
       rx="10.546875" />
    <rect
       style="opacity:1;fill:#18481c;fill-opacity:1;fill-rule:nonzero;stroke:none;stroke-width:1;stroke-linecap:butt;stroke-linejoin:round;marker:none;marker-start:none;marker-mid:none;marker-end:none;stroke-miterlimit:4;stroke-dasharray:none;stroke-dashoffset:0;stroke-opacity:1;visibility:visible;display:inline;overflow:visible;enable-background:accumulate"
       id="textcolor"
       width="115"
       height="15"
       x="268.67188"
       y="26.502808" />
    <rect
       style="opacity:1;fill:url(#radialGradient3340);fill-opacity:1;fill-rule:nonzero;stroke:#544b31;stroke-width:0.80000001;stroke-linecap:round;stroke-linejoin:round;stroke-miterlimit:4;stroke-dasharray:none;stroke-opacity:1;filter:url(#filter4339)"
       id="cell"
       width="37.5"
       height="37.5"
       x="202.18341"
       y="15.016022"
       ry="4.6875" />
    <g
       id="hero">
      <g
         id="g7132">
        <path
           style="fill:#3542ca;fill-opacity:1;fill-rule:evenodd;stroke:#000000;stroke-width:0.99999958px;stroke-linecap:butt;stroke-linejoin:miter;stroke-opacity:1"
           d="M 34.557695,35.893761 C 33.332257,37.099615 33.283289,38.893704 32.646085,40.393676 L 36.762478,40.334853 C 36.762478,40.334853 36.587895,37.736996 38.082077,38.108119 C 39.576259,38.479242 39.813441,40.169995 39.813441,40.169995 L 43.155691,40.281836 C 43.155691,40.281836 42.08743,36.588794 41.430934,36.158848 C 40.842393,35.773407 35.513972,35.840743 34.557695,35.893761 z "
           id="path3987"
           sodipodi:nodetypes="cccsccsc" />
        <path
           style="fill:#ff002c;fill-opacity:1;fill-rule:evenodd;stroke:#000000;stroke-width:0.99999958px;stroke-linecap:butt;stroke-linejoin:miter;stroke-opacity:1"
           d="M 35.15348,30.215849 C 35.15348,30.215849 33.847093,30.740217 34.148762,31.764205 C 30.979841,31.788191 29.476531,36.011408 29.476531,36.011408 L 31.873829,36.505984 C 32.08249,34.889127 33.173505,34.154623 34.088049,33.59659 C 33.509253,34.39109 34.265465,36.146473 34.265465,36.146473 L 41.488813,36.26412 C 42.058384,35.457245 42.804426,34.356253 41.962233,33.490555 C 41.962233,33.490555 44.672523,34.680928 44.615588,36.13486 C 45.088063,36.118205 47.360164,36.241658 47.360164,36.241658 C 47.415001,34.288516 45.058074,32.864786 43.642323,31.970467 C 43.744871,31.517297 43.572175,30.645793 42.334993,30.239073 C 41.56321,30.417971 36.70743,29.314552 35.15348,30.215849 z "
           id="path3985"
           sodipodi:nodetypes="ccccccccccccc" />
        <path
           style="fill:#ffcead;fill-opacity:1;stroke:#000000;stroke-width:0.99999958;stroke-miterlimit:4;stroke-dashoffset:0;stroke-opacity:1"
           d="M 47.809358,24.428395 C 47.809358,28.36163 43.398988,30.88391 38.472334,30.88391 C 33.545681,30.88391 29.13531,28.178927 29.13531,24.245692 C 29.13531,20.312456 33.545681,16.633057 38.472334,16.633057 C 43.398988,16.633057 47.809358,20.495159 47.809358,24.428395 z "
           id="path3103"
           sodipodi:nodetypes="csssc" />
        <path
           sodipodi:type="arc"
           style="fill:#1f00ff;fill-opacity:1;stroke:none;stroke-width:1;stroke-miterlimit:4;stroke-dasharray:none;stroke-dashoffset:0;stroke-opacity:1"
           id="path3979"
           sodipodi:cx="12.529411"
           sodipodi:cy="13.117647"
           sodipodi:rx="1.1764706"
           sodipodi:ry="1.0588236"
           d="M 13.705882 13.117647 A 1.1764706 1.0588236 0 1 1  11.352941,13.117647 A 1.1764706 1.0588236 0 1 1  13.705882 13.117647 z"
           transform="matrix(1.244654,0,0,1.051514,19.530703,10.012396)" />
        <path
           transform="matrix(1.244654,0,0,1.051514,27.061383,10.118432)"
           d="M 13.705882 13.117647 A 1.1764706 1.0588236 0 1 1  11.352941,13.117647 A 1.1764706 1.0588236 0 1 1  13.705882 13.117647 z"
           sodipodi:ry="1.0588236"
           sodipodi:rx="1.1764706"
           sodipodi:cy="13.117647"
           sodipodi:cx="12.529411"
           id="path3981"
           style="fill:#1f00ff;fill-opacity:1;stroke:none;stroke-width:1;stroke-miterlimit:4;stroke-dasharray:none;stroke-dashoffset:0;stroke-opacity:1"
           sodipodi:type="arc" />
        <path
           style="fill:none;fill-opacity:0.75;fill-rule:evenodd;stroke:#000000;stroke-width:0.99999958px;stroke-linecap:butt;stroke-linejoin:miter;stroke-opacity:1"
           d="M 35.693273,27.72907 C 37.645672,28.488987 40.793416,28.29459 42.088374,27.94114"
           id="path3983"
           sodipodi:nodetypes="cc" />
        <path
           style="fill:#724b1e;fill-opacity:1;fill-rule:evenodd;stroke:#000000;stroke-width:0.99999958px;stroke-linecap:butt;stroke-linejoin:miter;stroke-opacity:1"
           d="M 36.58412,40.193982 C 36.58412,40.193982 32.704272,40.171974 32.347248,40.205594 C 29.223939,40.499712 29.35794,42.633476 29.35794,42.633476 L 36.806409,42.653383 C 36.806409,42.653383 37.122026,40.618122 36.58412,40.193982 z "
           id="path3989"
           sodipodi:nodetypes="csccc" />
        <path
           id="path3991"
           d="M 39.751953,40.193982 C 39.751953,40.193982 43.279242,40.168147 43.635885,40.205594 C 45.876841,40.440888 46.625193,42.633476 46.625193,42.633476 L 39.468,42.653383 C 39.468,42.653383 39.214048,40.618122 39.751953,40.193982 z "
           style="fill:#724b1e;fill-opacity:1;fill-rule:evenodd;stroke:#000000;stroke-width:0.99999958px;stroke-linecap:butt;stroke-linejoin:miter;stroke-opacity:1"
           sodipodi:nodetypes="csccc" />
        <path
           style="fill:#ffcead;fill-opacity:1;fill-rule:evenodd;stroke:#000000;stroke-width:1px;stroke-linecap:butt;stroke-linejoin:miter;stroke-opacity:1"
           d="M 28.937311,36.477164 C 28.937311,36.477164 26.512079,38.920289 27.466722,39.477164 C 28.878487,40.300693 29.290252,37.947753 30.290252,38.359517 C 31.290252,38.771282 31.937311,38.888929 31.937311,37.477164 C 31.937311,36.065399 29.937311,35.477164 28.937311,36.477164 z "
           id="path3993"
           sodipodi:nodetypes="csssc" />
        <path
           sodipodi:nodetypes="csssc"
           id="path3995"
           d="M 47.478551,36.458054 C 47.478551,36.458054 49.324922,39.363484 48.27324,39.70322 C 46.717973,40.205634 46.819151,37.81908 45.75421,38.007361 C 44.689269,38.195643 44.032022,38.172128 44.334068,36.793052 C 44.636113,35.413977 46.715655,35.267261 47.478551,36.458054 z "
           style="fill:#ffcead;fill-opacity:1;fill-rule:evenodd;stroke:#000000;stroke-width:1px;stroke-linecap:butt;stroke-linejoin:miter;stroke-opacity:1" />
        <rect
           style="fill:#f8ff00;fill-opacity:1;stroke:#000000;stroke-width:1.00000012;stroke-miterlimit:4;stroke-dasharray:none;stroke-dashoffset:0;stroke-opacity:1"
           id="rect4070"
           width="3.0000007"
           height="2"
           x="36.450035"
           y="34.918102" />
        <path
           style="fill:#724b1e;fill-opacity:1;fill-rule:evenodd;stroke:#000000;stroke-width:0.9999997px;stroke-linecap:butt;stroke-linejoin:miter;stroke-opacity:1"
           d="M 28.565259,22.621392 C 28.565259,22.621392 23.409127,22.353887 23.298319,20.176229 C 23.125946,16.78867 47.373513,14.773574 50.89823,17.909345 C 52.887904,19.679463 48.735178,21.142947 47.784972,21.602574 C 45.518666,22.698816 30.690513,23.334565 28.565259,22.621392 z "
           id="path11311"
           sodipodi:nodetypes="csssc" />
        <path
           style="fill:#724b1e;fill-opacity:1;fill-rule:evenodd;stroke:#000000;stroke-width:1px;stroke-linecap:butt;stroke-linejoin:miter;stroke-opacity:1"
           d="M 30.505711,18.188306 C 30.505711,18.188306 31.891748,13.47578 33.8322,13.568183 C 35.772651,13.660585 35.865054,15.601037 36.696676,14.769415 C 37.528298,13.937793 39.006738,11.720134 41.039592,12.921366 C 43.072446,14.122598 45.659715,18.465513 45.012898,19.019928 C 44.36608,19.574343 32.908175,21.145185 30.505711,18.188306 z "
           id="path11333" />
        <path
           style="fill:#000000;fill-opacity:1;fill-rule:evenodd;stroke:none;stroke-width:1px;stroke-linecap:butt;stroke-linejoin:miter;stroke-opacity:1"
           d="M 29.814326,19.091472 L 30.731226,16.417181 C 34.602581,18.913186 41.377451,17.665183 44.408314,16.799222 C 45.164717,16.583107 45.744334,19.454974 45.095989,19.779147 C 43.109373,20.772455 31.571718,21.00168 29.814326,19.091472 z "
           id="path12208"
           sodipodi:nodetypes="ccssc" />
      </g>
      <rect
         y="9.4849491"
         x="19.336412"
         height="37.5"
         width="37.5"
         id="rect5190"
         style="opacity:1;fill:none;fill-opacity:1;fill-rule:nonzero;stroke:none;stroke-width:1.29999995;stroke-linecap:round;stroke-linejoin:round;stroke-miterlimit:4;stroke-dasharray:none;stroke-opacity:1;display:inline;filter:url(#filter4339)" />
    </g>
    <g
       id="enemy">
      <g
         id="g8171"
         transform="translate(1.3810679,0)">
        <path
           sodipodi:nodetypes="ccccccccccccccccccccsc"
           id="path8173"
           d="M 63.911494,23.828584 C 64.784144,23.169083 68.318404,25.206603 69.177084,24.787254 C 70.053344,24.173471 70.955664,19.177424 71.186894,17.740979 C 71.560534,16.312384 73.425554,13.328814 76.247684,13.934099 C 78.311024,13.964594 78.494244,17.313062 78.949564,18.016657 C 79.544724,18.986429 79.477114,20.155523 79.804364,21.208407 C 81.860244,21.88207 82.170534,19.140415 83.137344,18.692445 C 84.084534,18.102216 85.170914,18.710027 85.970094,19.271681 C 86.979884,19.943089 90.377964,26.832281 89.922094,28.140261 C 89.477634,29.067642 86.155134,27.193409 85.424874,26.641528 C 84.698584,26.233933 83.867494,26.939863 83.900724,27.70668 C 83.864994,28.673667 86.296564,35.65401 86.710054,36.81569 C 86.906244,37.764101 86.938984,38.740792 87.010364,39.701369 C 86.807404,40.749389 83.590934,38.759511 82.981724,38.12729 C 82.147204,37.815795 82.510984,40.809015 82.045694,41.267683 C 81.403314,41.951845 74.103094,38.199345 73.059174,37.988802 C 72.086744,38.05082 70.734044,41.889534 69.971044,42.617411 C 69.043994,43.066803 67.387624,39.179625 67.317474,38.076825 C 67.340344,37.103987 68.670754,31.757971 67.877054,30.154652 C 66.611054,27.846271 65.605934,32.08698 64.647644,31.85633 C 64.061614,31.296353 64.108394,28.386177 62.095074,28.792655 C 61.540354,28.90465 62.778154,24.539578 63.911494,23.828584 z "
           style="fill:url(#linearGradient7178);fill-opacity:1;fill-rule:evenodd;stroke:none;stroke-width:1px;stroke-linecap:butt;stroke-linejoin:miter;stroke-opacity:1" />
        <path
           sodipodi:nodetypes="csssc"
           id="path8175"
           d="M 71.468224,29.447735 C 70.455654,28.687327 72.147984,24.981641 74.873284,25.17171 C 77.489304,25.354158 80.991424,30.396541 79.640384,30.743499 C 78.961494,30.917843 76.470804,28.357879 74.737094,28.15197 C 72.875394,27.93086 72.535674,30.061263 71.468224,29.447735 z "
           style="fill:#000000;fill-opacity:1;fill-rule:evenodd;stroke:none;stroke-width:1px;stroke-linecap:butt;stroke-linejoin:miter;stroke-opacity:1" />
        <path
           transform="matrix(0.767362,0,0,0.901663,-57.426936,26.141168)"
           d="m 172.27228,-5.9798594 c 0,1.4385247 -0.8136,2.6046794 -1.81722,2.6046794 -1.00362,0 -1.81722,-1.1661547 -1.81722,-2.6046794 0,-1.4385246 0.8136,-2.6046793 1.81722,-2.6046793 1.00362,0 1.81722,1.1661547 1.81722,2.6046793 z"
           sodipodi:ry="2.6046793"
           sodipodi:rx="1.8172182"
           sodipodi:cy="-5.9798594"
           sodipodi:cx="170.45506"
           id="path8177"
           style="opacity:1;fill:#000000;fill-opacity:1;stroke:none;stroke-width:1.41711283;stroke-miterlimit:4;stroke-dasharray:none;stroke-dashoffset:0;stroke-opacity:1"
           sodipodi:type="arc" />
        <path
           sodipodi:type="arc"
           style="opacity:1;fill:#000000;fill-opacity:1;stroke:none;stroke-width:1.62726986;stroke-miterlimit:4;stroke-dasharray:none;stroke-dashoffset:0;stroke-opacity:1"
           id="path8179"
           sodipodi:cx="170.45506"
           sodipodi:cy="-5.9798594"
           sodipodi:rx="1.8172182"
           sodipodi:ry="2.6046793"
           d="m 172.27228,-5.9798594 c 0,1.4385247 -0.8136,2.6046794 -1.81722,2.6046794 -1.00362,0 -1.81722,-1.1661547 -1.81722,-2.6046794 0,-1.4385246 0.8136,-2.6046793 1.81722,-2.6046793 1.00362,0 1.81722,1.1661547 1.81722,2.6046793 z"
           transform="matrix(0.751134,0,0,0.845599,-50.662916,26.472218)" />
        <path
           sodipodi:nodetypes="csscsssssccscssssssscsss"
           id="path8181"
           d="M 82.449154,28.429479 C 82.032424,28.985124 81.662694,34.197289 82.569874,34.499682 C 83.677454,34.868876 84.870384,37.552492 84.870384,38.140524 C 84.870384,38.509389 84.892374,39.003116 84.964134,39.453024 C 85.603444,39.783213 86.263344,40.018797 86.651634,39.984274 C 86.710304,39.976968 86.793634,39.974701 86.839134,39.953024 C 86.845344,39.949617 86.864474,39.925495 86.870384,39.921774 C 86.926524,39.88138 86.972274,39.808818 86.995384,39.734274 C 86.997334,39.726455 86.993794,39.711212 86.995384,39.703024 C 86.924004,38.742447 86.910314,37.776436 86.714134,36.828024 C 86.300644,35.666344 83.865914,28.670011 83.901634,27.703024 C 83.886054,27.343579 84.074694,26.989794 84.339134,26.765524 C 84.636494,26.527891 85.058394,26.430358 85.432884,26.640524 C 86.066154,27.119108 88.655684,28.581227 89.620384,28.359274 C 89.645664,28.352444 89.691334,28.337419 89.714134,28.328024 C 89.728764,28.321175 89.763184,28.304818 89.776634,28.296774 C 89.789484,28.288121 89.827524,28.275419 89.839134,28.265524 C 89.844624,28.26026 89.865224,28.239858 89.870384,28.234274 C 89.880054,28.222457 89.893304,28.184912 89.901634,28.171774 C 89.905454,28.164869 89.929414,28.147769 89.932884,28.140524 C 90.069444,27.748694 89.851474,26.841886 89.464134,25.765524 C 89.433864,25.764815 89.386274,25.738839 89.370384,25.765524 C 87.855054,28.309629 84.783994,24.390278 83.795894,24.55833 C 80.990744,25.035421 82.849744,27.895352 82.449154,28.429479 z "
           style="fill:#e4e4e1;fill-opacity:1;fill-rule:evenodd;stroke:none;stroke-width:1px;stroke-linecap:butt;stroke-linejoin:miter;stroke-opacity:1" />
        <path
           style="fill:none;fill-opacity:1;fill-rule:evenodd;stroke:#000000;stroke-width:1px;stroke-linecap:butt;stroke-linejoin:miter;stroke-opacity:1"
           d="M 63.911494,23.828584 C 64.784144,23.169083 68.318404,25.206603 69.177084,24.787254 C 70.053344,24.173471 70.955664,19.177424 71.186894,17.740979 C 71.560534,16.312384 73.425554,13.328814 76.247684,13.934099 C 78.311024,13.964594 79.477114,20.155523 79.804364,21.208407 C 81.860244,21.88207 82.170534,19.140415 83.137344,18.692445 C 84.084534,18.102216 85.170914,18.710027 85.970094,19.271681 C 86.979884,19.943089 90.377964,26.832281 89.922094,28.140261 C 89.477634,29.067642 86.155134,27.193409 85.424874,26.641528 C 84.698584,26.233933 83.867494,26.939863 83.900724,27.70668 C 83.864994,28.673667 86.296564,35.65401 86.710054,36.81569 C 86.906244,37.764101 86.938984,38.740792 87.010364,39.701369 C 86.807404,40.749389 83.590934,38.759511 82.981724,38.12729 C 82.147204,37.815795 82.510984,40.809015 82.045694,41.267683 C 81.403314,41.951845 74.103094,38.199345 73.059174,37.988802 C 72.086744,38.05082 70.734044,41.889534 69.971044,42.617411 C 69.043994,43.066803 67.387624,39.179625 67.317474,38.076825 C 67.340344,37.103987 68.670754,31.757971 67.877054,30.154652 C 66.611054,27.846271 65.605934,32.08698 64.647644,31.85633 C 64.061614,31.296353 64.108394,28.386177 62.095074,28.792655 C 61.540354,28.90465 62.778154,24.539578 63.911494,23.828584 z "
           id="path8183"
           sodipodi:nodetypes="cccccccccccccccccccsc" />
      </g>
      <rect
         style="opacity:1;fill:none;fill-opacity:1;fill-rule:nonzero;stroke:none;stroke-width:1.29999995;stroke-linecap:round;stroke-linejoin:round;stroke-miterlimit:4;stroke-dasharray:none;stroke-opacity:1;display:inline;filter:url(#filter4339)"
         id="rect8185"
         width="37.5"
         height="37.5"
         x="58.86602"
         y="9.4122" />
    </g>
    <g
       id="fastenemy">
      <g
         transform="translate(4.9718446,-0.2762136)"
         id="g7156">
        <path
           sodipodi:nodetypes="ccccsc"
           id="path6863"
           d="M 118.40455,23.887977 C 118.40455,23.887977 127.23325,21.229108 126.11697,33.212232 C 124.32416,31.063283 124.56095,29.970596 121.24596,31.609625 C 121.04301,28.586527 120.87388,28.768641 118.53985,30.152711 C 118.77664,27.020344 117.72802,26.364732 116.51027,27.238881 C 115.29251,28.11303 114.48067,25.636274 118.40455,23.887977 z "
           style="fill:#8742e4;fill-opacity:1;fill-rule:evenodd;stroke:#000000;stroke-width:0.99999958px;stroke-linecap:butt;stroke-linejoin:miter;stroke-opacity:1" />
        <path
           style="fill:#8742e4;fill-opacity:1;fill-rule:evenodd;stroke:#000000;stroke-width:0.99999958px;stroke-linecap:butt;stroke-linejoin:miter;stroke-opacity:1"
           d="M 108.55714,22.109829 C 108.55714,22.109829 102.90474,14.338221 97.214567,24.706479 C 99.841027,24.117806 100.2511,23.086301 102.02115,26.520666 C 103.84715,24.213916 103.88329,24.468502 105.00304,27.071967 C 106.53475,24.396796 107.74032,24.53705 108.24093,26.01789 C 108.74154,27.498731 110.75776,26.020454 108.55714,22.109829 z "
           id="path6865"
           sodipodi:nodetypes="ccccsc" />
        <path
           id="path6867"
           d="M 108.58882,32.841063 L 105.04976,37.026219 L 100.54581,37.194478 L 104.54455,37.94672 L 102.22701,41.701075 L 105.2876,38.894987 L 106.68817,42.274096 L 105.89706,37.55042 L 109.67399,35.234035 L 108.58882,32.841063 z "
           style="fill:#000000;fill-opacity:1;fill-rule:evenodd;stroke:none;stroke-width:1px;stroke-linecap:butt;stroke-linejoin:miter;stroke-opacity:1" />
        <path
           style="fill:#000000;fill-opacity:1;fill-rule:evenodd;stroke:none;stroke-width:1px;stroke-linecap:butt;stroke-linejoin:miter;stroke-opacity:1"
           d="M 113.32006,32.933638 L 116.41599,37.456435 L 120.87959,38.081033 L 116.82515,38.423465 L 118.7496,42.393686 L 115.98969,39.291405 L 114.25332,42.510882 L 115.51985,37.891916 L 111.99757,35.20409 L 113.32006,32.933638 z "
           id="path6869" />
        <path
           sodipodi:nodetypes="cscscccc"
           id="path6871"
           d="M 118.43863,16.220103 C 118.43863,16.220103 118.50531,19.20159 118.61389,20.166305 C 118.86227,22.373429 113.01142,38.422012 109.12399,38.542912 C 106.37992,34.311458 107.98063,20.408103 109.12399,18.473723 C 110.26735,16.539343 111.11912,15.206392 111.11912,15.206392 C 111.11912,15.206392 111.29638,17.748331 111.52504,18.594621 C 112.78275,17.990128 114.61212,17.990128 115.52681,19.320014 C 116.21282,19.924508 117.52395,17.308191 118.43863,16.220103 z "
           style="fill:#8742e4;fill-opacity:1;fill-rule:evenodd;stroke:#000000;stroke-width:0.99999982px;stroke-linecap:butt;stroke-linejoin:miter;stroke-opacity:1" />
        <path
           transform="matrix(0.801271,0.309055,-0.333553,0.742421,-128.07013,-78.240702)"
           d="m 302.58706,9.8912039 c 0,0.6384501 -0.22644,1.1560151 -0.50576,1.1560151 -0.27932,0 -0.50576,-0.517565 -0.50576,-1.1560151 0,-0.6384498 0.22644,-1.1560155 0.50576,-1.1560155 0.27932,0 0.50576,0.5175657 0.50576,1.1560155 z"
           sodipodi:ry="1.1560155"
           sodipodi:rx="0.5057568"
           sodipodi:cy="9.8912039"
           sodipodi:cx="302.0813"
           id="path6873"
           style="opacity:1;fill:#8742e4;fill-opacity:1;stroke:#000000;stroke-width:1.19696915;stroke-miterlimit:4;stroke-dasharray:none;stroke-dashoffset:0;stroke-opacity:1"
           sodipodi:type="arc" />
        <path
           sodipodi:type="arc"
           style="opacity:1;fill:#8742e4;fill-opacity:1;stroke:#000000;stroke-width:1.28869224;stroke-miterlimit:4;stroke-dasharray:none;stroke-dashoffset:0;stroke-opacity:1"
           id="path6875"
           sodipodi:cx="302.0813"
           sodipodi:cy="9.8912039"
           sodipodi:rx="0.5057568"
           sodipodi:ry="1.1560155"
           d="m 302.58706,9.8912039 c 0,0.6384501 -0.22644,1.1560151 -0.50576,1.1560151 -0.27932,0 -0.50576,-0.517565 -0.50576,-1.1560151 0,-0.6384498 0.22644,-1.1560155 0.50576,-1.1560155 0.27932,0 0.50576,0.5175657 0.50576,1.1560155 z"
           transform="matrix(0.738089,0.28945,-0.307252,0.695326,-105.40113,-70.897722)" />
      </g>
      <rect
         y="9.4122"
         x="97.535919"
         height="37.5"
         width="37.5"
         id="rect7180"
         style="opacity:1;fill:none;fill-opacity:1;fill-rule:nonzero;stroke:none;stroke-width:1.29999995;stroke-linecap:round;stroke-linejoin:round;stroke-miterlimit:4;stroke-dasharray:none;stroke-opacity:1;display:inline;filter:url(#filter4339)" />
    </g>
    <g
       id="junkheap">
      <g
         transform="translate(10.219903,-0.5524272)"
         id="g7165">
        <path
           style="opacity:1;fill:#b27e33;fill-opacity:1;stroke:none;stroke-width:1;stroke-miterlimit:4;stroke-dasharray:none;stroke-dashoffset:0;stroke-opacity:1"
           d="M 151.03792,14.846435 C 149.83696,14.584664 148.60176,15.261297 148.2122,16.455943 L 147.45651,18.773342 L 144.48549,17.804511 C 143.2112,17.388974 141.86734,18.071914 141.4518,19.3462 L 141.07395,20.5049 C 140.65841,21.77919 141.34135,23.123053 142.61564,23.538589 L 145.58667,24.50742 L 142.28295,34.638615 C 141.86741,35.912904 142.55035,37.256768 143.82464,37.672305 L 144.5674,37.914512 C 145.84169,38.330049 147.21527,37.656803 147.6308,36.382511 L 150.93451,26.251316 L 154.20264,27.317031 C 155.47693,27.732568 156.82079,27.049631 157.23633,25.775341 L 157.61417,24.616642 C 158.02971,23.342352 157.34678,21.998493 156.07248,21.582953 L 152.80436,20.517238 L 153.56004,18.199839 C 153.97558,16.92555 153.26294,15.572002 151.98864,15.156461 L 151.24589,14.914253 C 151.16625,14.888283 151.11798,14.863887 151.03792,14.846435 z "
           id="rect6905" />
        <path
           style="opacity:1;fill:#9a6d2c;fill-opacity:1;stroke:none;stroke-width:1;stroke-miterlimit:4;stroke-dasharray:none;stroke-dashoffset:0;stroke-opacity:1"
           d="M 152.45869,15.352002 C 151.57061,17.667269 150.73994,21.195752 150.73994,21.195752 L 146.30244,37.820752 C 146.90544,37.556175 147.42544,37.06022 147.64619,36.383252 L 150.92744,26.258252 L 154.20869,27.320752 C 155.48297,27.736289 156.8244,27.063792 157.23994,25.789502 L 157.61494,24.602002 C 158.03047,23.327712 157.35799,21.986293 156.08369,21.570752 L 152.80244,20.508252 L 153.55244,18.195752 C 153.91344,17.088714 153.42918,15.911689 152.45869,15.352002 z "
           id="path10431" />
        <text
           xml:space="preserve"
           style="font-size:4.74933434px;font-style:normal;font-variant:normal;font-weight:bold;font-stretch:normal;text-align:start;line-height:125%;writing-mode:lr-tb;text-anchor:start;fill:#000000;fill-opacity:1;stroke:none;stroke-width:1px;stroke-linecap:butt;stroke-linejoin:miter;stroke-opacity:1;font-family:Bitstream Vera Sans"
           x="145.43843"
           y="-19.06282"
           id="text7783"
           transform="matrix(0.9593059,0.282369,-0.282369,0.9593059,0,0)"
           sodipodi:linespacing="125%"><tspan
             sodipodi:role="line"
             id="tspan7785"
             x="145.43843"
             y="-19.06282"
             style="letter-spacing:0.26391765">RIP</tspan></text>
        <path
           id="path11309"
           d="M 151.03792,14.846435 C 149.83696,14.584664 148.60176,15.261297 148.2122,16.455943 L 147.45651,18.773342 L 144.48549,17.804511 C 143.2112,17.388974 141.86734,18.071914 141.4518,19.3462 L 141.07395,20.5049 C 140.65841,21.77919 141.34135,23.123053 142.61564,23.538589 L 145.58667,24.50742 L 142.28295,34.638615 C 141.86741,35.912904 142.55035,37.256768 143.82464,37.672305 L 144.5674,37.914512 C 145.84169,38.330049 147.21527,37.656803 147.6308,36.382511 L 150.93451,26.251316 L 154.20264,27.317031 C 155.47693,27.732568 156.82079,27.049631 157.23633,25.775341 L 157.61417,24.616642 C 158.02971,23.342352 157.34678,21.998493 156.07248,21.582953 L 152.80436,20.517238 L 153.56004,18.199839 C 153.97558,16.92555 153.26294,15.572002 151.98864,15.156461 L 151.24589,14.914253 C 151.16625,14.888283 151.11798,14.863887 151.03792,14.846435 z "
           style="opacity:1;fill:none;fill-opacity:1;stroke:#000000;stroke-width:1;stroke-miterlimit:4;stroke-dasharray:none;stroke-dashoffset:0;stroke-opacity:1" />
        <path
           style="fill:#d0d0d0;fill-opacity:1;fill-rule:evenodd;stroke:none;stroke-width:1px;stroke-linecap:butt;stroke-linejoin:miter;stroke-opacity:1"
           d="M 142.6677,32.193664 C 140.53462,32.611026 139.64531,35.426998 137.9674,37.13855 C 134.64276,37.381562 133.43626,39.677542 132.36557,41.502335 C 135.79857,40.97231 137.95156,43.067777 139.83581,44.283555 C 143.15151,42.977652 148.37257,42.473999 150.36732,41.060193 C 152.77147,42.456902 155.81933,43.120057 158.96364,43.710983 C 158.902,41.018131 155.91986,37.449277 152.30498,36.365383 C 150.76655,35.779059 149.39477,33.713031 148.53059,32.792375 C 146.14681,34.756044 143.11714,33.171698 142.6677,32.193664 z "
           id="path7787"
           sodipodi:nodetypes="ccccccccc" />
        <path
           style="fill:#b6b6b6;fill-opacity:1;fill-rule:evenodd;stroke:none;stroke-width:1px;stroke-linecap:butt;stroke-linejoin:miter;stroke-opacity:1"
           d="M 148.52119,32.789502 C 148.31633,32.958255 147.77673,33.273925 147.56438,33.392908 C 148.02751,33.607269 151.13981,40.44569 150.67972,41.259394 C 152.9405,42.36747 156.15829,43.169459 158.95869,43.695752 C 158.89706,41.002901 155.91732,37.435896 152.30244,36.352002 C 150.76402,35.765679 149.38537,33.710158 148.52119,32.789502 z "
           id="path8670"
           sodipodi:nodetypes="cccccc" />
        <path
           style="fill:#b6b6b6;fill-opacity:1;fill-rule:evenodd;stroke:none;stroke-width:1px;stroke-linecap:butt;stroke-linejoin:miter;stroke-opacity:1"
           d="M 142.33369,32.727002 C 142.33368,32.727002 140.29211,41.28925 139.64619,44.164502 C 139.70563,44.204106 139.77481,44.251509 139.83369,44.289502 C 142.00963,43.432503 144.9982,42.908215 147.36494,42.258252 C 143.16753,40.938971 142.23415,34.950136 142.33369,32.727002 z "
           id="path10421"
           sodipodi:nodetypes="ccccc" />
        <path
           sodipodi:nodetypes="ccccccccc"
           id="path10429"
           d="M 142.6677,32.193664 C 140.53462,32.611026 139.64531,35.426998 137.9674,37.13855 C 134.64276,37.381562 133.43626,39.677542 132.36557,41.502335 C 135.79857,40.97231 137.95156,43.067777 139.83581,44.283555 C 143.15151,42.977652 148.37257,42.473999 150.36732,41.060193 C 152.77147,42.456902 155.81933,43.120057 158.96364,43.710983 C 158.902,41.018131 155.91986,37.449277 152.30498,36.365383 C 150.76655,35.779059 149.39477,33.713031 148.53059,32.792375 C 146.14681,34.756044 143.11714,33.171698 142.6677,32.193664 z "
           style="fill:none;fill-opacity:1;fill-rule:evenodd;stroke:#000000;stroke-width:1px;stroke-linecap:butt;stroke-linejoin:miter;stroke-opacity:1" />
      </g>
      <rect
         y="9.412199"
         x="137.8631"
         height="37.5"
         width="37.5"
         id="rect7182"
         style="opacity:1;fill:none;fill-opacity:1;fill-rule:nonzero;stroke:none;stroke-width:1.29999995;stroke-linecap:round;stroke-linejoin:round;stroke-miterlimit:4;stroke-dasharray:none;stroke-opacity:1;display:inline;filter:url(#filter4339)" />
    </g>
    <g
       style="display:inline"
       id="cursor0"
       transform="translate(-459.05238,-433.67343)">
      <path
         sodipodi:nodetypes="cscscsc"
         id="path1315"
         d="M 1930.2562,467.41058 C 1930.2562,467.41058 1917.4432,456.3706 1916.3486,456.41057 C 1915.2541,456.45053 1916.3487,463.41061 1916.3487,463.41061 C 1916.3487,463.41061 1900.3486,464.41055 1900.3486,467.4106 C 1900.3486,470.41059 1916.3486,471.41057 1916.3486,471.41057 C 1916.3486,471.41057 1915.2155,478.44916 1916.3486,478.41061 C 1917.4048,478.37468 1930.2562,467.41058 1930.2562,467.41058 z"
         style="fill:#ffffff;fill-opacity:1;fill-rule:evenodd;stroke:#000000;stroke-width:2.00000286;stroke-linecap:round;stroke-linejoin:round;stroke-miterlimit:4;stroke-dasharray:none;stroke-opacity:1" />
      <rect
         y="451.41061"
         x="1899.3024"
         height="32"
         width="32"
         id="rect2624"
         style="fill:none;fill-opacity:1" />
    </g>
    <g
       style="display:inline"
       id="cursor1"
       transform="translate(-459.05238,-401.67343)">
      <path
         sodipodi:nodetypes="cscscsc"
         id="path3416"
         d="M 1926.0165,456.69643 C 1926.0165,456.69643 1909.1499,457.95013 1908.4042,458.75241 C 1907.6585,459.55455 1913.354,463.70209 1913.354,463.70209 C 1913.354,463.70209 1902.7473,475.72291 1904.8687,477.8443 C 1906.99,479.96562 1919.0108,469.35901 1919.0108,469.35901 C 1919.0108,469.35901 1923.1866,475.13721 1923.9606,474.30876 C 1924.682,473.53653 1926.0165,456.69643 1926.0165,456.69643 z"
         style="fill:#ffffff;fill-opacity:1;fill-rule:evenodd;stroke:#000000;stroke-width:2.00000286;stroke-linecap:round;stroke-linejoin:round;stroke-miterlimit:4;stroke-dasharray:none;stroke-opacity:1" />
      <rect
         y="451.41061"
         x="1899.3024"
         height="32"
         width="32"
         id="rect3418"
         style="fill:none;fill-opacity:1" />
    </g>
    <g
       style="display:inline"
       id="cursor2"
       transform="translate(-459.05238,-369.67343)">
      <path
         sodipodi:nodetypes="cscscsc"
         id="path3422"
         d="M 1915.3023,452.45089 C 1915.3023,452.45089 1904.2623,465.26387 1904.3023,466.35846 C 1904.3422,467.45295 1911.3023,466.35838 1911.3023,466.35838 C 1911.3023,466.35838 1912.3023,482.35845 1915.3024,482.35844 C 1918.3024,482.35846 1919.3023,466.35846 1919.3023,466.35846 C 1919.3023,466.35846 1926.3409,467.49153 1926.3024,466.35843 C 1926.2664,465.30227 1915.3023,452.45089 1915.3023,452.45089 z"
         style="fill:#ffffff;fill-opacity:1;fill-rule:evenodd;stroke:#000000;stroke-width:2.00000286;stroke-linecap:round;stroke-linejoin:round;stroke-miterlimit:4;stroke-dasharray:none;stroke-opacity:1" />
      <rect
         y="451.40466"
         x="1899.3024"
         height="32"
         width="32"
         id="rect3424"
         style="fill:none;fill-opacity:1" />
    </g>
    <g
       style="display:inline"
       id="cursor3"
       transform="translate(-459.05238,-337.67343)">
      <path
         sodipodi:nodetypes="cscscsc"
         id="path3428"
         d="M 1904.5882,456.69643 C 1904.5882,456.69643 1921.4548,457.95013 1922.2005,458.75241 C 1922.9462,459.55455 1917.2507,463.70209 1917.2507,463.70209 C 1917.2507,463.70209 1927.8574,475.72291 1925.736,477.8443 C 1923.6147,479.96562 1911.5939,469.35901 1911.5939,469.35901 C 1911.5939,469.35901 1907.4181,475.13721 1906.6441,474.30876 C 1905.9227,473.53653 1904.5882,456.69643 1904.5882,456.69643 z"
         style="fill:#ffffff;fill-opacity:1;fill-rule:evenodd;stroke:#000000;stroke-width:2.00000286;stroke-linecap:round;stroke-linejoin:round;stroke-miterlimit:4;stroke-dasharray:none;stroke-opacity:1" />
      <rect
         y="451.41061"
         x="1899.3024"
         height="32"
         width="32"
         id="rect3431"
         style="fill:none;fill-opacity:1" />
    </g>
    <g
       style="display:inline"
       id="cursor4"
       transform="matrix(-1,0,0,-1,3371.5524,629.14774)">
      <path
         sodipodi:nodetypes="cscscsc"
         id="path3453"
         d="M 1930.2562,467.41058 C 1930.2562,467.41058 1917.4432,456.3706 1916.3486,456.41057 C 1915.2541,456.45053 1916.3487,463.41061 1916.3487,463.41061 C 1916.3487,463.41061 1900.3486,464.41055 1900.3486,467.4106 C 1900.3486,470.41059 1916.3486,471.41057 1916.3486,471.41057 C 1916.3486,471.41057 1915.2155,478.44916 1916.3486,478.41061 C 1917.4048,478.37468 1930.2562,467.41058 1930.2562,467.41058 z"
         style="fill:#ffffff;fill-opacity:1;fill-rule:evenodd;stroke:#000000;stroke-width:2.00000286;stroke-linecap:round;stroke-linejoin:round;stroke-miterlimit:4;stroke-dasharray:none;stroke-opacity:1" />
      <rect
         y="451.41061"
         x="1899.3024"
         height="32"
         width="32"
         id="rect3455"
         style="fill:none;fill-opacity:1" />
    </g>
    <g
       style="display:inline"
       id="cursor5"
       transform="matrix(-1,0,0,-1,3371.5524,661.14774)">
      <path
         sodipodi:nodetypes="cscscsc"
         id="path3459"
         d="M 1926.0165,456.69643 C 1926.0165,456.69643 1909.1499,457.95013 1908.4042,458.75241 C 1907.6585,459.55455 1913.354,463.70209 1913.354,463.70209 C 1913.354,463.70209 1902.7473,475.72291 1904.8687,477.8443 C 1906.99,479.96562 1919.0108,469.35901 1919.0108,469.35901 C 1919.0108,469.35901 1923.1866,475.13721 1923.9606,474.30876 C 1924.682,473.53653 1926.0165,456.69643 1926.0165,456.69643 z"
         style="fill:#ffffff;fill-opacity:1;fill-rule:evenodd;stroke:#000000;stroke-width:2.00000286;stroke-linecap:round;stroke-linejoin:round;stroke-miterlimit:4;stroke-dasharray:none;stroke-opacity:1" />
      <rect
         y="451.41061"
         x="1899.3024"
         height="32"
         width="32"
         id="rect3461"
         style="fill:none;fill-opacity:1" />
    </g>
    <g
       style="display:inline"
       id="cursor6"
       transform="matrix(-1,0,0,-1,3371.5524,693.14184)">
      <path
         sodipodi:nodetypes="cscscsc"
         id="path3465"
         d="M 1915.3023,452.45089 C 1915.3023,452.45089 1904.2623,465.26387 1904.3023,466.35846 C 1904.3422,467.45295 1911.3023,466.35838 1911.3023,466.35838 C 1911.3023,466.35838 1912.3023,482.35845 1915.3024,482.35844 C 1918.3024,482.35846 1919.3023,466.35846 1919.3023,466.35846 C 1919.3023,466.35846 1926.3409,467.49153 1926.3024,466.35843 C 1926.2664,465.30227 1915.3023,452.45089 1915.3023,452.45089 z"
         style="fill:#ffffff;fill-opacity:1;fill-rule:evenodd;stroke:#000000;stroke-width:2.00000286;stroke-linecap:round;stroke-linejoin:round;stroke-miterlimit:4;stroke-dasharray:none;stroke-opacity:1" />
      <rect
         y="451.40466"
         x="1899.3024"
         height="32"
         width="32"
         id="rect3467"
         style="fill:none;fill-opacity:1" />
    </g>
    <g
       style="display:inline"
       id="cursor7"
       transform="matrix(-1,0,0,-1,3371.5524,725.14774)">
      <path
         sodipodi:nodetypes="cscscsc"
         id="path3471"
         d="M 1904.5882,456.69643 C 1904.5882,456.69643 1921.4548,457.95013 1922.2005,458.75241 C 1922.9462,459.55455 1917.2507,463.70209 1917.2507,463.70209 C 1917.2507,463.70209 1927.8574,475.72291 1925.736,477.8443 C 1923.6147,479.96562 1911.5939,469.35901 1911.5939,469.35901 C 1911.5939,469.35901 1907.4181,475.13721 1906.6441,474.30876 C 1905.9227,473.53653 1904.5882,456.69643 1904.5882,456.69643 z"
         style="fill:#ffffff;fill-opacity:1;fill-rule:evenodd;stroke:#000000;stroke-width:2.00000286;stroke-linecap:round;stroke-linejoin:round;stroke-miterlimit:4;stroke-dasharray:none;stroke-opacity:1" />
      <rect
         y="451.41061"
         x="1899.3024"
         height="32"
         width="32"
         id="rect3473"
         style="fill:none;fill-opacity:1" />
    </g>
    <g
       id="cursor8"
       transform="translate(-479.48427,-219.80307)">
      <path
         id="rect2189"
         d="M 1931.9824,500.15608 L 1926.3548,505.70565 L 1926.3548,513.56754 L 1931.787,518.92442 L 1939.486,518.92442 L 1945.1137,513.37485 L 1945.1137,505.51296 L 1939.6814,500.15608 L 1931.9824,500.15608 z"
         style="fill:#ffffff;fill-opacity:1;fill-rule:evenodd;stroke:#000000;stroke-width:1.99999905;stroke-linecap:round;stroke-linejoin:miter;marker:none;marker-start:none;marker-mid:none;marker-end:none;stroke-miterlimit:4;stroke-dashoffset:0;stroke-opacity:1;visibility:visible;display:inline;overflow:visible" />
      <rect
         style="fill:none;fill-opacity:1;display:inline"
         id="rect3406"
         width="32"
         height="32"
         x="1919.7343"
         y="493.54025" />
    </g>
  </g>
</svg>
